<?xml version="1.0" encoding="UTF-8"?>
<svg id="Layer_1" data-name="Layer 1" xmlns="http://www.w3.org/2000/svg" viewBox="0 0 200 200">
  <defs>
    <style>
      .cls-1 {
        fill: #fff;
      }

      .cls-2 {
        fill: #3174d0;
      }
    </style>
  </defs>
  <path class="cls-2" d="M182.51,155.21c11.03-15.94,17.49-35.24,17.49-56.04C200,44.4,155.23,0,100,0S0,44.4,0,99.17s44.77,99.17,100,99.17c14.56,0,28.39-3.09,40.86-8.63,46.83,20.86,64.3,5.62,55.26-7.18-10.07-14.27-12.94-24.37-13.61-27.32Z"/>
  <path class="cls-1" d="M144.38,61.49c-35.69,3.73-64.17,54.22-64.17,54.22-8.76-13.77-11.9-26.28-21.29-20.69-9.39,5.59-4.7,14.9,8.45,33.53,6.98,9.9,13.17,10.85,17.44,9.58,3.24-.97,5.8-3.48,7.02-6.61,14.67-37.59,50.67-65.37,50.67-65.37,6.57-5.59,1.88-4.66,1.88-4.66Z"/>
</svg>